<?xml version="1.0" encoding="UTF-8" standalone="no"?>
<svg
   width="1209pt"
   height="705pt"
   viewBox="0 0 1209 705"
   version="1.1"
   id="svg59"
   sodipodi:docname="AKH Logo.svg"
   inkscape:version="1.1.1 (3bf5ae0d25, 2021-09-20)"
   xmlns:inkscape="http://www.inkscape.org/namespaces/inkscape"
   xmlns:sodipodi="http://sodipodi.sourceforge.net/DTD/sodipodi-0.dtd"
   xmlns="http://www.w3.org/2000/svg"
   xmlns:svg="http://www.w3.org/2000/svg">
  <defs
     id="defs63" />
  <sodipodi:namedview
     id="namedview61"
     pagecolor="#ffffff"
     bordercolor="#666666"
     borderopacity="1.0"
     inkscape:pageshadow="2"
     inkscape:pageopacity="0.0"
     inkscape:pagecheckerboard="0"
     inkscape:document-units="pt"
     showgrid="false"
     inkscape:zoom="0.77667494"
     inkscape:cx="805.35623"
     inkscape:cy="470.59585"
     inkscape:window-width="1920"
     inkscape:window-height="991"
     inkscape:window-x="-9"
     inkscape:window-y="-9"
     inkscape:window-maximized="1"
     inkscape:current-layer="svg59" />
  <g
     id="#ffffffff" />
  <g
     id="#1b4e9cff"
     style="fill:#ffffff">
    <path
       fill="#1b4e9c"
       opacity="1.00"
       d=" M 676.97 39.64 C 693.77 39.56 710.56 39.74 727.36 39.55 C 741.76 77.12 755.63 114.92 769.86 152.57 C 771.74 157.56 773.62 162.56 775.51 167.55 C 789.88 205.24 803.76 243.16 820.05 280.09 C 824.60 290.39 829.32 300.60 833.97 310.85 C 821.13 310.73 808.29 310.96 795.46 310.73 C 777.48 266.44 760.17 221.89 742.68 177.41 C 740.38 171.50 738.05 165.61 735.74 159.71 C 724.65 131.42 713.60 103.11 702.54 74.80 C 689.34 114.76 675.62 154.54 662.45 194.51 C 633.78 215.09 610.59 242.76 593.93 273.78 C 597.55 263.37 602.03 253.24 605.85 242.88 C 631.45 175.81 654.69 107.87 676.97 39.64 Z"
       id="path3"
       style="fill:#ffffff" />
    <path
       fill="#1b4e9c"
       opacity="1.00"
       d=" M 853.37 152.15 C 853.40 114.92 853.32 77.69 853.41 40.46 C 865.62 40.52 877.83 40.48 890.05 40.48 C 890.05 80.44 890.05 120.40 890.04 160.36 C 890.03 168.12 890.04 175.88 890.04 183.64 C 889.95 225.63 890.25 267.63 889.89 309.61 C 877.72 309.43 865.54 309.59 853.37 309.53 C 853.37 263.00 853.38 216.47 853.37 169.94 C 853.36 164.01 853.36 158.08 853.37 152.15 Z"
       id="path5"
       style="fill:#ffffff" />
    <path
       fill="#1b4e9c"
       opacity="1.00"
       d=" M 989.48 43.39 C 1002.76 43.30 1016.04 43.37 1029.32 43.36 C 1000.01 89.51 970.34 135.44 940.84 181.48 C 930.80 175.90 920.29 171.23 909.65 166.94 L 909.12 166.64 C 936.10 125.69 962.70 84.48 989.48 43.39 Z"
       id="path7"
       style="fill:#ffffff" />
    <path
       fill="#1b4e9c"
       opacity="1.00"
       d=" M 429.74 421.21 C 447.21 408.98 464.69 396.77 482.14 384.51 C 482.98 388.67 483.79 392.84 484.67 397.00 C 472.11 405.91 459.15 414.28 446.86 423.54 C 457.11 424.07 467.64 427.56 475.06 434.88 C 480.93 440.68 483.86 448.93 484.14 457.08 C 484.55 461.01 482.28 464.46 480.81 467.93 C 483.41 471.40 487.87 472.52 492.02 472.49 C 497.39 472.50 502.80 472.77 508.17 472.36 C 508.00 443.79 508.16 415.22 508.09 386.65 C 512.42 386.63 516.74 386.66 521.07 386.63 C 521.08 419.41 521.08 452.18 521.08 484.96 C 511.05 484.80 501.02 485.11 491.00 484.80 C 484.50 484.47 479.64 479.66 476.51 474.39 C 473.29 478.82 468.69 482.09 464.03 484.86 C 449.36 485.01 434.68 484.97 420.01 484.93 C 419.99 489.20 420.02 493.47 419.93 497.74 C 414.29 502.89 408.57 507.96 402.92 513.11 C 397.32 513.12 391.72 513.03 386.12 513.00 C 386.18 509.09 386.16 505.18 386.20 501.27 C 392.82 501.26 399.44 501.26 406.06 501.25 C 406.06 473.85 406.05 446.45 406.04 419.05 C 410.60 419.05 415.17 419.02 419.74 419.07 C 419.64 436.86 419.86 454.66 419.67 472.46 C 431.08 472.93 442.53 472.54 453.96 472.65 C 459.23 472.40 465.02 472.77 469.62 469.76 C 473.40 467.15 472.80 461.98 472.25 458.03 C 471.34 451.25 466.89 445.28 460.94 442.02 C 452.44 437.26 442.56 435.80 432.99 434.87 C 431.74 430.36 430.65 425.80 429.74 421.21 Z"
       id="path9"
       style="fill:#ffffff" />
    <path
       fill="#1b4e9c"
       opacity="1.00"
       d=" M 534.15 386.58 C 538.63 386.55 543.10 386.63 547.58 386.52 C 547.79 419.28 547.60 452.05 547.67 484.81 C 543.17 484.84 538.67 484.83 534.17 484.83 C 534.15 452.08 534.18 419.33 534.15 386.58 Z"
       id="path11"
       style="fill:#ffffff" />
    <path
       fill="#1b4e9c"
       opacity="1.00"
       d=" M 842.37 472.51 C 842.43 443.90 842.15 415.27 842.51 386.67 C 846.81 386.82 851.12 386.72 855.44 386.75 C 855.41 419.48 855.44 452.20 855.42 484.93 C 838.97 484.93 822.52 484.91 806.07 484.94 C 800.61 485.25 796.38 481.11 792.08 478.37 C 788.26 480.79 784.71 484.34 780.06 484.92 C 731.38 484.94 682.69 484.91 634.00 484.94 C 625.12 485.53 615.38 480.79 612.89 471.73 C 610.11 475.98 608.23 480.93 604.75 484.65 C 591.96 488.16 577.54 488.62 565.34 482.82 C 565.61 478.17 565.98 473.53 566.32 468.89 C 577.65 472.68 590.01 474.49 601.78 471.67 C 604.46 470.92 607.35 470.17 609.36 468.12 C 607.61 452.58 603.37 437.46 600.35 422.15 C 604.49 420.03 608.55 417.77 612.68 415.63 C 615.21 429.26 618.55 442.72 621.68 456.23 C 622.94 461.04 624.62 466.14 628.57 469.44 C 631.16 471.68 634.64 472.56 638.01 472.52 C 671.19 472.53 704.37 472.52 737.54 472.52 C 737.55 454.69 737.54 436.87 737.55 419.04 C 741.96 419.05 746.38 419.03 750.80 419.06 C 750.75 436.84 750.87 454.63 750.73 472.41 C 761.85 472.74 772.97 472.33 784.09 472.62 C 776.58 465.15 769.55 456.53 767.02 446.01 C 766.07 441.65 765.15 436.70 767.69 432.70 C 771.08 426.71 775.01 420.37 781.08 416.85 C 791.56 415.34 802.45 414.62 812.84 417.15 C 821.23 419.21 828.70 426.20 829.44 435.11 C 830.08 445.07 825.26 454.56 818.90 461.93 C 815.64 465.93 811.60 469.16 807.80 472.61 C 819.32 472.40 830.85 472.60 842.37 472.51 M 779.80 431.13 C 780.16 445.65 787.10 460.35 798.99 468.92 C 806.10 463.21 812.25 455.71 814.69 446.78 C 815.47 443.19 816.36 439.05 814.26 435.73 C 812.03 432.37 807.89 431.07 804.11 430.41 C 796.04 429.30 787.77 429.45 779.80 431.13 Z"
       id="path13"
       style="fill:#ffffff" />
    <path
       fill="#1b4e9c"
       opacity="1.00"
       d=" M 869.94 386.55 C 874.41 386.59 878.89 386.57 883.37 386.57 C 883.37 419.33 883.39 452.09 883.36 484.84 C 878.88 484.82 874.41 484.81 869.94 484.85 C 869.92 452.09 869.93 419.32 869.94 386.55 Z"
       id="path15"
       style="fill:#ffffff" />
    <path
       fill="#1b4e9c"
       opacity="1.00"
       d=" M 192.98 425.98 C 204.21 418.37 218.28 417.28 231.45 417.96 C 231.46 428.63 231.20 439.31 231.55 449.97 C 232.00 455.95 232.08 462.42 235.42 467.63 C 237.90 471.44 242.72 472.56 247.00 472.51 C 289.16 472.54 331.32 472.52 373.48 472.52 C 373.50 454.69 373.47 436.87 373.49 419.05 C 377.72 419.04 381.95 419.06 386.18 419.02 C 386.18 441.00 386.19 462.98 386.17 484.95 C 336.41 484.85 286.63 484.93 236.87 484.88 C 229.82 485.05 223.43 480.09 221.60 473.33 C 219.39 477.44 216.22 480.91 214.00 485.01 C 200.50 488.33 184.92 480.54 180.32 467.24 C 180.13 467.22 179.73 467.19 179.54 467.18 C 176.42 474.86 172.31 482.53 165.65 487.71 C 160.87 491.49 154.27 493.11 148.42 491.05 C 148.83 485.60 148.75 480.10 149.67 474.70 C 155.24 476.27 161.82 477.55 166.98 474.15 C 171.70 470.80 173.86 465.17 176.20 460.11 C 177.55 457.45 176.76 454.37 177.35 451.54 C 178.57 441.28 184.29 431.64 192.98 425.98 M 196.36 437.27 C 187.76 445.90 188.96 462.15 199.02 469.16 C 205.24 473.74 214.23 473.58 220.47 469.11 C 217.27 455.82 219.17 442.02 218.61 428.50 C 210.58 429.06 202.15 431.36 196.36 437.27 Z"
       id="path17"
       style="fill:#ffffff" />
    <path
       fill="#1b4e9c"
       opacity="1.00"
       d=" M 330.80 502.50 C 334.49 499.19 338.00 495.69 341.64 492.33 C 345.47 495.85 349.31 499.36 353.18 502.84 C 349.59 506.25 345.93 509.59 342.48 513.14 C 338.45 509.76 334.55 506.20 330.80 502.50 Z"
       id="path19"
       style="fill:#ffffff" />
    <path
       fill="#1b4e9c"
       opacity="1.00"
       d=" M 353.99 502.49 C 357.72 499.23 361.20 495.70 364.83 492.33 C 368.57 495.86 372.45 499.22 376.13 502.81 C 372.45 506.18 368.96 509.75 365.25 513.08 C 361.58 509.47 357.57 506.20 353.99 502.49 Z"
       id="path21"
       style="fill:#ffffff" />
    <path
       fill="#1b4e9c"
       opacity="1.00"
       d=" M 714.11 502.68 C 717.66 499.18 721.35 495.81 724.95 492.35 C 728.67 495.91 732.68 499.19 736.20 502.97 C 732.57 506.32 729.01 509.75 725.43 513.15 C 721.69 509.62 717.89 506.15 714.11 502.68 Z"
       id="path23"
       style="fill:#ffffff" />
    <path
       fill="#1b4e9c"
       opacity="1.00"
       d=" M 164.13 536.38 C 168.85 536.57 173.57 536.26 178.28 536.56 C 188.01 561.90 198.11 587.09 207.94 612.39 C 204.34 612.35 200.73 612.38 197.13 612.35 C 192.18 599.96 187.17 587.58 182.48 575.09 C 165.95 581.26 154.50 596.29 148.26 612.30 C 144.23 612.20 140.21 612.25 136.19 612.25 C 145.69 587.03 154.56 561.56 164.13 536.38 M 169.93 549.96 C 166.67 559.93 163.18 569.82 159.96 579.81 C 166.08 575.30 173.10 572.15 180.38 570.04 C 177.45 562.30 174.29 554.65 171.42 546.89 C 170.62 547.74 170.28 548.87 169.93 549.96 Z"
       id="path25"
       style="fill:#ffffff" />
    <path
       fill="#1b4e9c"
       opacity="1.00"
       d=" M 305.62 536.48 C 310.30 536.39 314.99 536.50 319.69 536.40 C 329.83 561.66 339.59 587.08 349.62 612.39 C 346.03 612.35 342.45 612.35 338.87 612.40 C 333.70 600.02 328.97 587.46 324.00 575.00 C 307.70 581.48 296.06 596.15 290.03 612.25 C 285.96 612.24 281.88 612.23 277.81 612.25 C 287.31 587.08 296.31 561.72 305.62 536.48 M 312.59 546.86 C 309.00 557.85 305.29 568.80 301.55 579.74 C 307.80 575.38 314.77 572.11 322.10 570.01 C 318.74 562.38 316.45 554.21 312.59 546.86 Z"
       id="path27"
       style="fill:#ffffff" />
    <path
       fill="#1b4e9c"
       opacity="1.00"
       d=" M 683.36 536.44 C 688.08 536.45 692.80 536.41 697.52 536.47 C 707.46 561.77 717.37 587.09 727.33 612.38 C 723.79 612.37 720.24 612.30 716.71 612.45 C 711.33 600.12 706.72 587.47 701.72 574.99 C 685.47 581.49 673.74 596.08 667.79 612.21 C 663.71 612.28 659.63 612.22 655.55 612.26 C 664.99 587.05 674.03 561.69 683.36 536.44 M 690.39 546.55 C 686.77 557.69 683.02 568.80 679.19 579.88 C 685.37 575.35 692.44 572.16 699.78 570.03 C 696.58 562.23 693.83 554.24 690.39 546.55 Z"
       id="path29"
       style="fill:#ffffff" />
    <path
       fill="#1b4e9c"
       opacity="1.00"
       d=" M 215.74 536.52 C 219.33 536.53 222.93 536.54 226.53 536.51 C 226.58 558.84 226.57 581.17 226.54 603.51 C 236.14 603.58 245.74 603.54 255.35 603.53 C 254.79 606.45 254.18 609.35 253.67 612.29 C 241.03 612.48 228.38 612.31 215.74 612.37 C 215.73 587.09 215.73 561.80 215.74 536.52 Z"
       id="path31"
       style="fill:#ffffff" />
    <path
       fill="#1b4e9c"
       opacity="1.00"
       d=" M 356.65 536.53 C 365.74 536.62 374.84 536.31 383.92 536.78 C 389.72 536.93 395.39 539.48 399.40 543.65 C 405.48 549.86 405.45 561.08 399.07 567.07 C 396.75 569.39 393.67 570.64 390.74 571.97 C 395.95 573.47 401.26 575.99 404.19 580.79 C 409.29 589.18 407.66 601.59 399.50 607.51 C 394.24 611.55 387.38 612.25 380.96 612.35 C 372.86 612.39 364.75 612.35 356.65 612.37 C 356.65 587.09 356.65 561.81 356.65 536.53 M 367.12 545.39 C 366.92 553.10 367.07 560.81 367.04 568.52 C 373.47 568.13 380.15 569.37 386.41 567.52 C 394.63 563.70 394.36 549.62 385.70 546.44 C 379.69 544.64 373.30 545.82 367.12 545.39 M 367.13 577.37 C 367.09 586.18 367.13 594.99 367.12 603.80 C 373.96 603.35 381.10 604.84 387.73 602.70 C 397.91 599.01 397.98 581.86 387.82 578.19 C 381.03 576.73 374.01 577.68 367.13 577.37 Z"
       id="path33"
       style="fill:#ffffff" />
    <path
       fill="#1b4e9c"
       opacity="1.00"
       d=" M 419.00 536.54 C 428.46 536.78 438.03 535.83 447.41 537.44 C 457.90 539.25 466.24 547.81 469.36 557.77 C 472.42 567.83 472.50 578.79 469.97 588.99 C 467.42 599.22 459.94 609.01 449.18 611.22 C 439.26 613.28 429.06 612.03 419.01 612.36 C 419.02 587.09 419.05 561.81 419.00 536.54 M 429.84 544.99 C 429.94 564.56 429.62 584.14 430.00 603.69 C 437.56 603.37 446.27 604.85 452.49 599.46 C 458.69 593.47 459.71 584.17 459.97 575.99 C 459.92 566.65 459.39 555.81 451.90 549.13 C 445.92 543.59 437.24 545.34 429.84 544.99 Z"
       id="path35"
       style="fill:#ffffff" />
    <path
       fill="#1b4e9c"
       opacity="1.00"
       d=" M 485.05 536.53 C 488.66 536.53 492.26 536.48 495.86 536.58 C 495.78 552.74 495.85 568.89 495.83 585.05 C 495.89 589.55 495.89 594.20 497.49 598.47 C 499.11 602.15 503.32 603.80 507.06 604.30 C 512.12 604.86 517.94 604.50 521.80 600.75 C 524.94 597.74 525.35 593.11 525.54 589.01 C 525.59 571.52 525.54 554.02 525.56 536.53 C 529.08 536.52 532.61 536.53 536.15 536.51 C 536.09 555.67 536.27 574.82 536.05 593.97 C 536.39 601.04 531.33 607.09 525.42 610.32 C 518.91 613.73 511.25 614.09 504.09 613.17 C 497.62 612.33 490.96 609.26 487.69 603.34 C 485.34 599.70 485.07 595.23 485.06 591.03 C 485.05 572.86 485.07 554.70 485.05 536.53 Z"
       id="path37"
       style="fill:#ffffff" />
    <path
       fill="#1b4e9c"
       opacity="1.00"
       d=" M 550.51 612.40 C 550.37 587.10 550.44 561.80 550.47 536.51 C 554.08 536.54 557.69 536.53 561.30 536.52 C 561.30 558.86 561.29 581.20 561.30 603.55 C 570.91 603.54 580.52 603.56 590.13 603.53 C 589.56 606.50 588.99 609.46 588.29 612.40 C 575.70 612.34 563.10 612.35 550.51 612.40 Z"
       id="path39"
       style="fill:#ffffff" />
    <path
       fill="#1b4e9c"
       opacity="1.00"
       d=" M 598.61 536.52 C 602.21 536.53 605.82 536.52 609.42 536.53 C 609.42 561.81 609.42 587.09 609.42 612.37 C 605.81 612.37 602.21 612.36 598.61 612.37 C 598.62 587.09 598.61 561.81 598.61 536.52 Z"
       id="path41"
       style="fill:#ffffff" />
    <path
       fill="#1b4e9c"
       opacity="1.00"
       d=" M 636.19 536.64 C 640.71 536.38 645.25 536.62 649.78 536.49 C 640.57 548.15 631.36 559.80 622.22 571.51 L 622.18 571.91 C 631.60 585.47 641.22 598.89 650.73 612.40 C 646.13 612.34 641.53 612.37 636.94 612.38 C 627.88 598.90 618.92 585.36 609.85 571.90 C 618.56 560.09 627.53 548.49 636.19 536.64 Z"
       id="path43"
       style="fill:#ffffff" />
    <path
       fill="#1b4e9c"
       opacity="1.00"
       d=" M 732.94 536.51 C 740.96 536.60 748.98 536.41 756.99 536.61 C 762.84 536.82 769.04 538.50 773.08 543.00 C 780.37 550.49 780.62 563.24 774.42 571.46 C 770.85 576.20 764.81 578.80 758.92 578.40 C 768.69 588.28 774.93 600.91 782.56 612.39 C 778.28 612.36 774.00 612.33 769.72 612.41 C 764.78 603.49 759.84 594.50 753.73 586.32 C 750.98 583.18 748.26 578.40 743.41 579.01 C 743.53 590.13 743.42 601.25 743.47 612.36 C 739.95 612.37 736.45 612.36 732.94 612.38 C 732.93 587.09 732.93 561.80 732.94 536.51 M 743.46 545.22 C 743.47 554.01 743.45 562.81 743.47 571.60 C 748.86 571.46 754.42 572.12 759.66 570.53 C 769.30 567.50 770.63 551.87 761.73 547.18 C 756.05 544.44 749.54 545.36 743.46 545.22 Z"
       id="path45"
       style="fill:#ffffff" />
    <path
       fill="#1b4e9c"
       opacity="1.00"
       d=" M 792.80 536.51 C 796.38 536.53 799.96 536.54 803.55 536.50 C 803.60 561.80 803.67 587.11 803.52 612.41 C 799.94 612.34 796.37 612.36 792.80 612.38 C 792.79 587.09 792.80 561.80 792.80 536.51 Z"
       id="path47"
       style="fill:#ffffff" />
    <path
       fill="#1b4e9c"
       opacity="1.00"
       d=" M 822.09 536.66 C 827.06 536.60 832.02 536.66 836.99 536.62 C 841.24 551.72 845.32 566.87 849.50 581.99 C 850.71 586.33 851.73 590.72 852.49 595.16 C 857.33 575.53 863.22 556.12 868.60 536.61 C 873.59 536.66 878.58 536.61 883.58 536.64 C 885.72 561.89 887.91 587.13 890.07 612.37 C 886.54 612.36 883.01 612.37 879.48 612.36 C 877.74 591.16 876.40 569.90 874.50 548.73 C 873.99 553.34 872.58 557.76 871.32 562.20 C 866.50 578.91 861.78 595.66 856.92 612.36 C 853.87 612.36 850.84 612.36 847.81 612.39 C 841.92 591.24 836.10 570.03 830.30 548.89 C 829.30 570.06 827.09 591.15 825.78 612.30 C 822.29 612.42 818.80 612.35 815.33 612.37 C 817.57 587.13 819.96 561.90 822.09 536.66 Z"
       id="path49"
       style="fill:#ffffff" />
  </g>
  <g
     id="#f9b10aff"
     style="fill:#ffffff">
    <path
       fill="#f9b10a"
       opacity="1.00"
       d=" M 769.86 152.57 C 797.49 148.75 825.75 147.73 853.37 152.15 C 853.36 158.08 853.36 164.01 853.37 169.94 C 834.07 165.10 813.95 162.44 794.09 164.72 C 787.84 165.31 781.66 166.35 775.51 167.55 C 773.62 162.56 771.74 157.56 769.86 152.57 Z"
       id="path52"
       style="fill:#ffffff" />
    <path
       fill="#f9b10a"
       opacity="1.00"
       d=" M 662.45 194.51 C 684.53 178.62 709.56 166.99 735.74 159.71 C 738.05 165.61 740.38 171.50 742.68 177.41 C 712.83 189.37 686.28 209.05 665.60 233.62 C 646.31 256.29 631.95 282.78 621.18 310.44 C 606.74 310.32 592.30 310.53 577.86 310.33 C 582.82 297.98 587.88 285.65 593.93 273.78 C 610.59 242.76 633.78 215.09 662.45 194.51 Z"
       id="path54"
       style="fill:#ffffff" />
    <path
       fill="#f9b10a"
       opacity="1.00"
       d=" M 890.04 160.36 C 896.66 162.29 903.16 164.61 909.65 166.94 C 920.29 171.23 930.80 175.90 940.84 181.48 C 966.65 195.60 989.76 214.70 1008.31 237.56 C 1026.05 259.24 1039.57 284.19 1049.27 310.43 C 1034.13 310.38 1018.99 310.42 1003.85 310.41 C 992.48 283.27 976.37 258.18 957.02 236.05 C 938.18 214.66 915.63 196.34 890.04 183.64 C 890.04 175.88 890.03 168.12 890.04 160.36 Z"
       id="path56"
       style="fill:#ffffff" />
  </g>
</svg>
